<?xml version="1.0" encoding="UTF-8" standalone="no"?>
<!-- Uploaded to: SVG Repo, www.svgrepo.com, Generator: SVG Repo Mixer Tools -->

<svg
   width="600"
   height="600"
   viewBox="0 0 18 18"
   fill="none"
   version="1.1"
   id="svg5244"
   sodipodi:docname="calendar_night.svg"
   inkscape:version="1.2 (dc2aedaf03, 2022-05-15)"
   xmlns:inkscape="http://www.inkscape.org/namespaces/inkscape"
   xmlns:sodipodi="http://sodipodi.sourceforge.net/DTD/sodipodi-0.dtd"
   xmlns="http://www.w3.org/2000/svg"
   xmlns:svg="http://www.w3.org/2000/svg">
  <defs
     id="defs5248" />
  <sodipodi:namedview
     id="namedview5246"
     pagecolor="#ffffff"
     bordercolor="#666666"
     borderopacity="1.0"
     inkscape:showpageshadow="2"
     inkscape:pageopacity="0.0"
     inkscape:pagecheckerboard="0"
     inkscape:deskcolor="#d1d1d1"
     showgrid="false"
     inkscape:zoom="0.34294679"
     inkscape:cx="828.1168"
     inkscape:cy="476.75034"
     inkscape:window-width="1920"
     inkscape:window-height="1001"
     inkscape:window-x="-9"
     inkscape:window-y="-9"
     inkscape:window-maximized="1"
     inkscape:current-layer="svg5244" />
  <path
     fill-rule="evenodd"
     clip-rule="evenodd"
     d="M 1,0 C 1.55228,0 2,0.44772 2,1 V 2 H 4 V 1 C 4,0.44772 4.44772,0 5,0 5.55228,0 6,0.44772 6,1 V 2 H 8 V 1 C 8,0.44772 8.4477,0 9,0 c 0.5523,0 1,0.44772 1,1 v 1 h 2 V 1 c 0,-0.55228 0.4477,-1 1,-1 0.5523,0 1,0.44772 1,1 v 1 h 2 V 1 c 0,-0.55228 0.4477,-1 1,-1 0.5523,0 1,0.44772 1,1 v 2 12 c 0,1.6569 -1.3431,3 -3,3 H 3 C 1.34315,18 0,16.6569 0,15 V 3 1 C 0,0.44772 0.44772,0 1,0 Z M 16,4 H 13 9 5 2 v 11 c 0,0.5523 0.44772,1 1,1 h 12 c 0.5523,0 1,-0.4477 1,-1 z M 10,7 C 10,7.5523 9.5523,8 9,8 8.4477,8 8,7.5523 8,7 8,6.44771 8.4477,6 9,6 c 0.5523,0 1,0.44771 1,1 z m 3,1 c 0.5523,0 1,-0.4477 1,-1 0,-0.55229 -0.4477,-1 -1,-1 -0.5523,0 -1,0.44771 -1,1 0,0.5523 0.4477,1 1,1 z M 6,10 C 6,10.5523 5.55228,11 5,11 4.44772,11 4,10.5523 4,10 4,9.4477 4.44772,9 5,9 5.55228,9 6,9.4477 6,10 Z m 3,1 c 0.5523,0 1,-0.4477 1,-1 C 10,9.4477 9.5523,9 9,9 8.4477,9 8,9.4477 8,10 c 0,0.5523 0.4477,1 1,1 z m 5,-1 c 0,0.5523 -0.4477,1 -1,1 -0.5523,0 -1,-0.4477 -1,-1 0,-0.5523 0.4477,-1 1,-1 0.5523,0 1,0.4477 1,1 z m -9,4 c 0.55228,0 1,-0.4477 1,-1 0,-0.5523 -0.44772,-1 -1,-1 -0.55228,0 -1,0.4477 -1,1 0,0.5523 0.44772,1 1,1 z m 5,-1 c 0,0.5523 -0.4477,1 -1,1 -0.5523,0 -1,-0.4477 -1,-1 0,-0.5523 0.4477,-1 1,-1 0.5523,0 1,0.4477 1,1 z m 3,1 c 0.5523,0 1,-0.4477 1,-1 0,-0.5523 -0.4477,-1 -1,-1 -0.5523,0 -1,0.4477 -1,1 0,0.5523 0.4477,1 1,1 z"
     fill="#000000"
     id="path5242"
     style="fill:#ffffff;fill-opacity:1" />
</svg>
