<?xml version="1.0" encoding="UTF-8" standalone="no"?>
<!-- Created with Inkscape (http://www.inkscape.org/) -->

<svg
   width="208.17931mm"
   height="272.1087mm"
   viewBox="0 0 208.17931 272.1087"
   version="1.1"
   id="svg5"
   inkscape:version="1.2 (dc2aedaf03, 2022-05-15)"
   sodipodi:docname="DR_Logo_Light.svg"
   inkscape:export-filename="..\DR_Logo_Full_2000.png"
   inkscape:export-xdpi="191.99998"
   inkscape:export-ydpi="191.99998"
   xmlns:inkscape="http://www.inkscape.org/namespaces/inkscape"
   xmlns:sodipodi="http://sodipodi.sourceforge.net/DTD/sodipodi-0.dtd"
   xmlns="http://www.w3.org/2000/svg"
   xmlns:svg="http://www.w3.org/2000/svg">
  <sodipodi:namedview
     id="namedview7"
     pagecolor="#ffffff"
     bordercolor="#000000"
     borderopacity="0.25"
     inkscape:showpageshadow="2"
     inkscape:pageopacity="0.0"
     inkscape:pagecheckerboard="0"
     inkscape:deskcolor="#d1d1d1"
     inkscape:document-units="mm"
     showgrid="false"
     inkscape:zoom="0.08838835"
     inkscape:cx="-3461.9947"
     inkscape:cy="282.8427"
     inkscape:window-width="1920"
     inkscape:window-height="1017"
     inkscape:window-x="1912"
     inkscape:window-y="-8"
     inkscape:window-maximized="1"
     inkscape:current-layer="layer1"
     showguides="false" />
  <defs
     id="defs2" />
  <g
     inkscape:label="Layer 1"
     inkscape:groupmode="layer"
     id="layer1"
     transform="translate(-29.68773,562.90148)">
    <g
       id="g686">
      <path
         style="fill:#f7bd5e;fill-opacity:1;stroke:none;stroke-width:21.0434;stroke-linecap:round;stroke-dasharray:none;stroke-opacity:1"
         d="m 44.47773,-548.09834 v 238.13226 c 119.0658,0 178.599,0 178.599,-119.06614 0,-119.06612 -59.5332,-119.06612 -178.599,-119.06612 z"
         id="path2497"
         sodipodi:nodetypes="cccc" />
      <path
         style="fill:#6581ae;fill-opacity:1;stroke:none;stroke-width:21.0434;stroke-linecap:round;stroke-dasharray:none;stroke-opacity:1"
         d="m 163.54393,-318.95548 c -59.5331,0 0,-110.07671 -76.9795,-110.07671 47.213,0 76.9795,-29.76651 76.9795,-59.53304 0,-29.76655 -30.4128,-59.53311 -119.0662,-59.53311 v 238.13226 c 119.0662,0 119.0662,-8.9894 119.0662,-8.9894 z"
         id="path2499"
         sodipodi:nodetypes="cccccc" />
      <path
         style="fill:none;fill-opacity:1;stroke:#ffffff;stroke-width:29.58;stroke-linecap:round;stroke-dasharray:none;stroke-opacity:1"
         d="m 44.47773,-548.09834 v 242.50095 c 121.2504,0 178.5993,0 178.5993,-123.43483 0,-119.06612 -59.5331,-119.06612 -178.5993,-119.06612 z"
         id="path2501"
         sodipodi:nodetypes="cccc" />
      <path
         style="fill:none;fill-opacity:1;stroke:#ffffff;stroke-width:29.58;stroke-linecap:round;stroke-dasharray:none;stroke-opacity:1"
         d="m 44.47773,-548.09834 c 90.9378,0 121.2504,30.3126 121.2504,60.62523 0,30.3126 -30.3126,58.28768 -83.99,58.28768 83.99,0 23.3647,114.26879 81.8058,114.26879"
         id="path2503"
         sodipodi:nodetypes="cscc" />
    </g>
  </g>
</svg>
