<?xml version="1.0" encoding="UTF-8" standalone="no"?>
<!-- Uploaded to: SVG Repo, www.svgrepo.com, Generator: SVG Repo Mixer Tools -->

<svg
   fill="#000000"
   height="800px"
   width="800px"
   version="1.1"
   id="Layer_1"
   viewBox="0 0 512 512"
   xml:space="preserve"
   sodipodi:docname="facelift_plans_dark.svg"
   inkscape:version="1.2.2 (732a01da63, 2022-12-09)"
   xmlns:inkscape="http://www.inkscape.org/namespaces/inkscape"
   xmlns:sodipodi="http://sodipodi.sourceforge.net/DTD/sodipodi-0.dtd"
   xmlns="http://www.w3.org/2000/svg"
   xmlns:svg="http://www.w3.org/2000/svg"><defs
   id="defs2512">
	
</defs><sodipodi:namedview
   id="namedview2510"
   pagecolor="#ffffff"
   bordercolor="#000000"
   borderopacity="0.25"
   inkscape:showpageshadow="2"
   inkscape:pageopacity="0.0"
   inkscape:pagecheckerboard="0"
   inkscape:deskcolor="#d1d1d1"
   showgrid="false"
   inkscape:zoom="0.38139572"
   inkscape:cx="894.0845"
   inkscape:cy="422.13374"
   inkscape:window-width="1920"
   inkscape:window-height="974"
   inkscape:window-x="-11"
   inkscape:window-y="-11"
   inkscape:window-maximized="1"
   inkscape:current-layer="Layer_1" />
<g
   id="g2481"
   style="fill:#152243;fill-opacity:1">
		<path
   d="M 487.828,289.496 C 474.97,272.225 457.672,260.814 437.001,255.772 v -17.268 h 2.571 c 6.649,0 12.039,-5.39 12.039,-12.039 0,-6.649 -5.39,-12.039 -12.039,-12.039 H 424.962 301.565 L 321.71,31.051 c 0.373,-3.401 -0.718,-6.801 -3.001,-9.349 -2.284,-2.549 -5.544,-4.004 -8.965,-4.004 H 12.038 c -3.421,0 -6.681,1.456 -8.965,4.004 -2.284,2.549 -3.374,5.947 -3.001,9.349 l 41.32,376.126 c 0.671,6.102 5.827,10.724 11.966,10.724 h 0.348 l 3.923,56.279 c 0.439,6.308 5.686,11.202 12.01,11.202 h 136.226 c 12.643,5.887 26.975,8.919 42.673,8.919 h 162.817 c 32.159,0 58.603,-12.688 76.473,-36.689 C 503.641,436.374 512,407.307 512,373.555 c 0,-33.751 -8.359,-62.821 -24.172,-84.059 z m -74.904,-50.994 v 14.314 0 c -0.522,-0.006 -1.045,-0.01 -1.569,-0.01 H 248.539 c -0.524,0 -1.047,0.004 -1.569,0.01 v -14.314 h 41.161 z M 64.148,393.821 25.472,41.775 H 296.31 L 277.343,214.426 H 258.82 L 271.718,97.029 c 0.373,-3.401 -0.718,-6.801 -3.001,-9.349 -2.284,-2.549 -5.544,-4.004 -8.965,-4.004 H 62.032 c -3.421,0 -6.681,1.456 -8.965,4.004 -2.284,2.549 -3.374,5.947 -3.001,9.349 l 25.078,228.278 c 0.671,6.104 5.827,10.724 11.966,10.724 h 64.645 c -0.262,1.203 -0.51,2.416 -0.746,3.639 -0.119,0.619 -0.236,1.24 -0.348,1.864 -0.199,1.103 -0.39,2.212 -0.567,3.329 -0.124,0.779 -0.238,1.564 -0.353,2.35 -0.147,1.016 -0.291,2.032 -0.42,3.06 -0.116,0.92 -0.217,1.852 -0.319,2.782 -0.102,0.934 -0.207,1.867 -0.295,2.811 -0.1,1.067 -0.178,2.146 -0.259,3.226 -0.063,0.843 -0.135,1.681 -0.187,2.53 -0.078,1.269 -0.13,2.555 -0.182,3.84 -0.028,0.687 -0.069,1.368 -0.09,2.06 -0.06,1.991 -0.094,3.999 -0.094,6.03 0,1.919 0.034,3.823 0.089,5.72 0.02,0.736 0.057,1.461 0.087,2.191 0.046,1.122 0.094,2.242 0.159,3.354 0.053,0.921 0.117,1.836 0.183,2.748 0.064,0.87 0.134,1.736 0.209,2.6 0.09,1.04 0.185,2.078 0.293,3.107 0.019,0.182 0.033,0.367 0.052,0.548 H 64.148 Z M 220.321,238.502 h 2.571 v 17.268 c -15.59,3.803 -29.256,11.236 -40.551,22.066 -5.942,5.688 -11.202,12.296 -15.716,19.767 -0.083,0.137 -0.166,0.273 -0.248,0.412 -0.768,1.283 -1.514,2.592 -2.238,3.926 -0.141,0.26 -0.279,0.522 -0.418,0.784 -0.671,1.259 -1.327,2.534 -1.958,3.837 -0.177,0.364 -0.344,0.737 -0.518,1.103 -0.445,0.946 -0.881,1.905 -1.307,2.874 -0.208,0.472 -0.423,0.938 -0.625,1.414 H 97.899 l -9.282,-84.492 h 48.723 c 6.649,0 12.039,-5.39 12.039,-12.039 0,-6.649 -5.39,-12.037 -12.039,-12.037 H 85.971 l -3.968,-36.116 h 79.413 c 6.649,0 12.039,-5.39 12.039,-12.039 0,-6.649 -5.39,-12.039 -12.039,-12.039 H 79.358 l -3.893,-35.439 h 170.851 l -11.718,106.673 h -14.277 c -6.649,0 -12.039,5.39 -12.039,12.039 0,6.649 5.39,12.038 12.039,12.038 z M 80.868,461.303 77.919,419.002 h 75.792 c 0.006,0.02 0.012,0.041 0.018,0.061 0.554,1.994 1.14,3.963 1.772,5.895 0.02,0.063 0.039,0.129 0.059,0.191 0.61,1.859 1.253,3.692 1.935,5.491 0.504,1.341 1.049,2.643 1.59,3.946 0.141,0.336 0.271,0.681 0.414,1.015 0.663,1.554 1.362,3.072 2.079,4.572 0.019,0.039 0.036,0.078 0.055,0.118 3.722,7.761 8.136,14.8 13.253,21.011 H 80.868 Z m 330.487,8.919 H 248.539 c -13.196,0 -24.128,-2.557 -33.187,-6.86 -0.403,-0.271 -0.82,-0.529 -1.262,-0.754 -14.05,-7.141 -23.38,-18.43 -29.575,-30.404 -10.168,-19.97 -12.235,-42.855 -12.507,-55.501 -0.019,-1.047 -0.035,-2.096 -0.035,-3.153 0,-1.335 0.026,-2.65 0.055,-3.963 0.331,-12.361 2.386,-33.632 11.499,-52.688 0.12,-0.246 0.237,-0.491 0.36,-0.737 0.066,-0.136 0.135,-0.272 0.202,-0.408 0.497,-0.984 1.024,-1.965 1.569,-2.945 0.429,-0.764 0.858,-1.526 1.306,-2.268 0.053,-0.089 0.105,-0.178 0.158,-0.267 9.796,-16.109 24.07,-26.917 42.021,-31.231 0.067,-0.016 0.138,-0.029 0.206,-0.045 0.976,-0.231 1.967,-0.438 2.965,-0.631 0.713,-0.136 1.441,-0.255 2.171,-0.373 0.384,-0.063 0.766,-0.128 1.153,-0.185 0.994,-0.146 2,-0.281 3.025,-0.392 10e-4,0 10e-4,0 0.002,0 0.002,0 0.006,-10e-4 0.008,-10e-4 0.106,-0.012 0.211,-0.026 0.317,-0.037 0.055,-0.006 0.111,-0.012 0.166,-0.017 0.907,-0.094 1.821,-0.172 2.746,-0.238 0.03,-0.002 0.06,-0.005 0.091,-0.007 l 0.858,-0.057 c 0.667,-0.041 1.339,-0.071 2.012,-0.097 l 0.808,-0.031 c 0.945,-0.028 1.897,-0.047 2.868,-0.047 h 162.817 c 1.051,0 2.086,0.019 3.108,0.051 3.041,0.099 6.019,0.343 8.887,0.731 0.089,0.012 0.178,0.008 0.266,0.018 59.431,8.029 64.304,74.573 64.304,95.87 0.001,22.675 -5.521,96.667 -76.566,96.667 z"
   id="path2479"
   style="fill:#152243;fill-opacity:1" />
	</g>
<g
   id="g2489"
   style="stroke:none;stroke-opacity:1;fill:#12c2e9;fill-opacity:1">
	<g
   id="g2487"
   style="stroke:none;stroke-opacity:1;fill:#12c2e9;fill-opacity:1">
		<path
   d="M329.948,301.708c-65.442,0-116.706,31.984-116.706,72.816s51.264,72.816,116.706,72.816s116.706-31.984,116.706-72.816    C446.653,333.692,395.39,301.708,329.948,301.708z M397.913,407.089c-17.962,10.43-42.099,16.174-67.967,16.174    s-50.005-5.744-67.967-16.174c-6.677-3.878-16.629-10.907-21.602-20.527h96.656c6.649,0,12.039-5.39,12.039-12.039    c0-6.649-5.39-12.039-12.039-12.039h-96.656c4.973-9.62,14.925-16.649,21.602-20.526c17.962-10.43,42.099-16.174,67.967-16.174    s50.005,5.744,67.967,16.174c9.211,5.349,24.662,16.692,24.662,32.565C422.575,390.397,407.124,401.74,397.913,407.089z"
   id="path2485"
   style="stroke:none;stroke-opacity:1;fill:#12c2e9;fill-opacity:1" />
	</g>
</g>
<g
   id="g2495"
   style="stroke:none;stroke-opacity:1;fill:#12c2e9;fill-opacity:1">
	<g
   id="g2493"
   style="stroke:none;stroke-opacity:1;fill:#12c2e9;fill-opacity:1">
		<path
   d="M209.337,152.875c-0.157-0.77-0.385-1.529-0.686-2.251c-0.301-0.722-0.674-1.421-1.108-2.083    c-0.445-0.65-0.939-1.264-1.493-1.83c-0.566-0.554-1.18-1.047-1.83-1.493c-0.662-0.433-1.36-0.807-2.083-1.108    s-1.481-0.53-2.251-0.686c-1.553-0.313-3.154-0.313-4.707,0c-0.771,0.156-1.529,0.385-2.251,0.686    c-0.722,0.301-1.421,0.674-2.083,1.108c-0.65,0.445-1.276,0.939-1.83,1.493c-0.554,0.566-1.059,1.18-1.493,1.83    c-0.433,0.662-0.807,1.36-1.108,2.083c-0.301,0.722-0.53,1.481-0.686,2.251c-0.156,0.783-0.229,1.565-0.229,2.36    c0,0.782,0.072,1.565,0.229,2.348c0.157,0.77,0.385,1.529,0.686,2.251c0.301,0.722,0.674,1.421,1.108,2.083    c0.433,0.65,0.939,1.276,1.493,1.83c0.554,0.554,1.18,1.059,1.83,1.493c0.662,0.433,1.36,0.807,2.083,1.108    c0.722,0.301,1.481,0.53,2.251,0.686c0.782,0.156,1.565,0.241,2.348,0.241c0.795,0,1.577-0.084,2.36-0.241    c0.771-0.156,1.529-0.385,2.251-0.686s1.421-0.674,2.083-1.108c0.65-0.433,1.264-0.939,1.83-1.493    c0.554-0.554,1.047-1.18,1.493-1.83c0.433-0.662,0.807-1.36,1.108-2.083c0.301-0.722,0.53-1.481,0.686-2.251    c0.156-0.783,0.229-1.565,0.229-2.348C209.566,154.44,209.494,153.658,209.337,152.875z"
   id="path2491"
   style="stroke:none;stroke-opacity:1;fill:#12c2e9;fill-opacity:1" />
	</g>
</g>
<g
   id="g2501"
   style="stroke:none;stroke-opacity:1;fill:#12c2e9;fill-opacity:1">
	<g
   id="g2499"
   style="stroke:none;stroke-opacity:1;fill:#12c2e9;fill-opacity:1">
		<path
   d="M384.957,372.171c-0.157-0.771-0.385-1.529-0.686-2.251c-0.301-0.722-0.674-1.433-1.108-2.083    c-0.445-0.662-0.951-1.276-1.505-1.83s-1.168-1.059-1.83-1.493c-0.65-0.433-1.348-0.807-2.071-1.108    c-0.734-0.301-1.493-0.53-2.251-0.686c-1.553-0.313-3.154-0.313-4.707,0c-0.771,0.156-1.529,0.385-2.251,0.686    c-0.734,0.301-1.433,0.674-2.083,1.108c-0.662,0.433-1.276,0.939-1.83,1.493s-1.059,1.168-1.493,1.83    c-0.433,0.65-0.807,1.36-1.108,2.083c-0.301,0.722-0.53,1.481-0.686,2.251c-0.156,0.77-0.241,1.565-0.241,2.348    c0,0.795,0.084,1.577,0.241,2.36c0.157,0.771,0.385,1.517,0.686,2.251c0.301,0.722,0.674,1.421,1.108,2.071    c0.433,0.662,0.939,1.276,1.493,1.83s1.168,1.059,1.83,1.505c0.65,0.433,1.348,0.807,2.083,1.108    c0.722,0.301,1.481,0.53,2.251,0.686c0.77,0.157,1.565,0.229,2.348,0.229c0.795,0,1.577-0.072,2.36-0.229    c0.758-0.156,1.517-0.385,2.251-0.686c0.722-0.301,1.421-0.674,2.071-1.108c0.662-0.445,1.276-0.951,1.83-1.505    s1.059-1.168,1.505-1.83c0.433-0.65,0.807-1.348,1.108-2.071c0.301-0.734,0.53-1.481,0.686-2.251    c0.156-0.783,0.229-1.565,0.229-2.36C385.186,373.736,385.114,372.941,384.957,372.171z"
   id="path2497"
   style="stroke:none;stroke-opacity:1;fill:#12c2e9;fill-opacity:1" />
	</g>
</g>
<g
   id="g2507"
   style="stroke:none;stroke-opacity:1;fill:#12c2e9;fill-opacity:1">
	<g
   id="g2505"
   style="stroke:none;stroke-opacity:1;fill:#12c2e9;fill-opacity:1">
		<path
   d="M185.26,213.068c-0.156-0.77-0.385-1.517-0.686-2.251c-0.301-0.722-0.674-1.421-1.108-2.071    c-0.445-0.662-0.939-1.276-1.493-1.83c-0.566-0.566-1.18-1.059-1.83-1.505c-0.662-0.433-1.36-0.807-2.083-1.108    s-1.481-0.53-2.251-0.686c-1.553-0.313-3.154-0.313-4.707,0c-0.77,0.156-1.529,0.385-2.251,0.686    c-0.722,0.301-1.433,0.674-2.083,1.108c-0.662,0.445-1.276,0.939-1.83,1.505c-0.554,0.554-1.059,1.168-1.493,1.83    c-0.433,0.65-0.807,1.348-1.108,2.071c-0.301,0.734-0.53,1.481-0.686,2.251c-0.156,0.783-0.229,1.565-0.229,2.36    c0,0.782,0.072,1.565,0.229,2.348c0.156,0.77,0.385,1.529,0.686,2.251c0.301,0.722,0.674,1.421,1.108,2.083    c0.433,0.65,0.939,1.276,1.493,1.83s1.168,1.059,1.83,1.493c0.65,0.433,1.36,0.807,2.083,1.108    c0.722,0.301,1.481,0.53,2.251,0.686c0.783,0.156,1.565,0.241,2.348,0.241c0.795,0,1.577-0.084,2.36-0.241    c0.77-0.156,1.529-0.385,2.251-0.686s1.421-0.674,2.083-1.108c0.65-0.433,1.264-0.939,1.83-1.493    c0.554-0.554,1.047-1.18,1.493-1.83c0.433-0.662,0.807-1.36,1.108-2.083c0.301-0.722,0.53-1.481,0.686-2.251    c0.156-0.783,0.241-1.565,0.241-2.348C185.501,214.633,185.417,213.851,185.26,213.068z"
   id="path2503"
   style="stroke:none;stroke-opacity:1;fill:#12c2e9;fill-opacity:1" />
	</g>
</g>
</svg>
