<?xml version="1.0" encoding="UTF-8" standalone="no"?>
<!-- Uploaded to: SVG Repo, www.svgrepo.com, Generator: SVG Repo Mixer Tools -->

<svg
   width="666.66669"
   height="666.66669"
   viewBox="0 0 20.000001 20.000001"
   fill="none"
   version="1.1"
   id="svg2794"
   sodipodi:docname="fb.svg"
   inkscape:version="1.2.2 (732a01da63, 2022-12-09)"
   xmlns:inkscape="http://www.inkscape.org/namespaces/inkscape"
   xmlns:sodipodi="http://sodipodi.sourceforge.net/DTD/sodipodi-0.dtd"
   xmlns="http://www.w3.org/2000/svg"
   xmlns:svg="http://www.w3.org/2000/svg">
  <defs
     id="defs2798" />
  <sodipodi:namedview
     id="namedview2796"
     pagecolor="#ffffff"
     bordercolor="#666666"
     borderopacity="1.0"
     inkscape:showpageshadow="2"
     inkscape:pageopacity="0.0"
     inkscape:pagecheckerboard="0"
     inkscape:deskcolor="#d1d1d1"
     showgrid="false"
     inkscape:zoom="0.485"
     inkscape:cx="278.35052"
     inkscape:cy="167.01031"
     inkscape:window-width="1920"
     inkscape:window-height="974"
     inkscape:window-x="-11"
     inkscape:window-y="-11"
     inkscape:window-maximized="1"
     inkscape:current-layer="svg2794" />
  <path
     fill-rule="evenodd"
     clip-rule="evenodd"
     d="M 0,4 C 0,1.79086 1.79086,0 4,0 h 12 c 2.2091,0 4,1.79086 4,4 v 12 c 0,2.2091 -1.7909,4 -4,4 H 4 C 1.79086,20 0,18.2091 0,16 Z M 4,2 C 2.89543,2 2,2.89543 2,4 v 12 c 0,1.1046 0.89543,2 2,2 h 6 V 11 H 9 C 8.4477,11 8,10.5523 8,10 8,9.4477 8.4477,9 9,9 h 1 V 7.5 C 10,5.567 11.567,4 13.5,4 h 0.6 c 0.5523,0 1,0.44772 1,1 0,0.55228 -0.4477,1 -1,1 H 13.5 C 12.6716,6 12,6.67157 12,7.5 V 9 h 2.1 c 0.5523,0 1,0.4477 1,1 0,0.5523 -0.4477,1 -1,1 H 12 v 7 h 4 c 1.1046,0 2,-0.8954 2,-2 V 4 C 18,2.89543 17.1046,2 16,2 Z"
     fill="#000000"
     id="path2792"
     style="fill:#ffffff" />
</svg>
