<?xml version="1.0" encoding="UTF-8" standalone="no"?>
<!-- Uploaded to: SVG Repo, www.svgrepo.com, Generator: SVG Repo Mixer Tools -->

<svg
   width="496"
   height="496"
   viewBox="0 -0.5 15.5 15.5"
   fill="none"
   version="1.1"
   id="svg2929"
   sodipodi:docname="insta.svg"
   inkscape:version="1.2.2 (732a01da63, 2022-12-09)"
   xmlns:inkscape="http://www.inkscape.org/namespaces/inkscape"
   xmlns:sodipodi="http://sodipodi.sourceforge.net/DTD/sodipodi-0.dtd"
   xmlns="http://www.w3.org/2000/svg"
   xmlns:svg="http://www.w3.org/2000/svg">
  <defs
     id="defs2933" />
  <sodipodi:namedview
     id="namedview2931"
     pagecolor="#ffffff"
     bordercolor="#666666"
     borderopacity="1.0"
     inkscape:showpageshadow="2"
     inkscape:pageopacity="0.0"
     inkscape:pagecheckerboard="0"
     inkscape:deskcolor="#d1d1d1"
     showgrid="false"
     inkscape:zoom="0.68589358"
     inkscape:cx="247.85186"
     inkscape:cy="247.85186"
     inkscape:window-width="1920"
     inkscape:window-height="974"
     inkscape:window-x="-11"
     inkscape:window-y="-11"
     inkscape:window-maximized="1"
     inkscape:current-layer="svg2929" />
  <path
     fill-rule="evenodd"
     clip-rule="evenodd"
     d="m 10.75,0.25 h -6 c -2.20914,0 -4,1.79086 -4,4 v 6 c 0,2.2091 1.79086,4 4,4 h 6 c 2.2091,0 4,-1.7909 4,-4 v -6 c 0,-2.20914 -1.7909,-4 -4,-4 z"
     stroke="#000000"
     stroke-width="1.5"
     stroke-linecap="round"
     stroke-linejoin="round"
     id="path2921"
     style="fill:none;stroke:#ffffff;stroke-opacity:1" />
  <path
     fill-rule="evenodd"
     clip-rule="evenodd"
     d="m 7.75,10.25 c -1.6569,0 -3,-1.3431 -3,-3 0,-1.6569 1.3431,-3 3,-3 1.6569,0 3,1.3431 3,3 0,0.7956 -0.3161,1.5587 -0.8787,2.1213 C 9.3087,9.9339 8.5456,10.25 7.75,10.25 Z"
     stroke="#000000"
     stroke-width="1.5"
     stroke-linecap="round"
     stroke-linejoin="round"
     id="path2923"
     style="fill:none;stroke:#ffffff;stroke-opacity:1" />
  <rect
     x="-3.75"
     y="11.25"
     width="1"
     height="1"
     rx="0.5"
     transform="rotate(-90)"
     stroke="#000000"
     stroke-linecap="round"
     id="rect2927"
     style="fill:none;stroke:#ffffff;stroke-opacity:1" />
</svg>
