<?xml version="1.0" encoding="UTF-8" standalone="no"?>
<!-- Uploaded to: SVG Repo, www.svgrepo.com, Generator: SVG Repo Mixer Tools -->

<svg
   fill="#000000"
   height="889.60876"
   width="889.60876"
   version="1.1"
   id="Layer_1"
   viewBox="0 0 569.35072 569.35073"
   xml:space="preserve"
   sodipodi:docname="livestream_studio.svg"
   inkscape:version="1.2 (dc2aedaf03, 2022-05-15)"
   xmlns:inkscape="http://www.inkscape.org/namespaces/inkscape"
   xmlns:sodipodi="http://sodipodi.sourceforge.net/DTD/sodipodi-0.dtd"
   xmlns="http://www.w3.org/2000/svg"
   xmlns:svg="http://www.w3.org/2000/svg"><defs
   id="defs2235" /><sodipodi:namedview
   id="namedview2233"
   pagecolor="#ffffff"
   bordercolor="#000000"
   borderopacity="0.25"
   inkscape:showpageshadow="2"
   inkscape:pageopacity="0.0"
   inkscape:pagecheckerboard="0"
   inkscape:deskcolor="#d1d1d1"
   showgrid="false"
   inkscape:zoom="0.38139572"
   inkscape:cx="-196.64615"
   inkscape:cy="262.19487"
   inkscape:window-width="1920"
   inkscape:window-height="1017"
   inkscape:window-x="1912"
   inkscape:window-y="-8"
   inkscape:window-maximized="1"
   inkscape:current-layer="Layer_1" />
<g
   id="g2224"
   transform="translate(-87.16282,28.674345)"
   style="fill:#344263;fill-opacity:1">
	<g
   id="g2222"
   style="fill:#344263;fill-opacity:1">
		<path
   d="M 406.294,450.709 301.502,172.472 c -1.497,-3.974 -5.298,-6.605 -9.544,-6.605 H 266.2 v -24.02 h 90.271 c 5.632,0 10.199,-4.566 10.199,-10.199 0,-5.633 -4.567,-10.199 -10.199,-10.199 H 266.2 v -24.02 h 62.476 c 5.632,0 10.199,-4.566 10.199,-10.199 V 50.868 h 30.285 c 5.632,0 10.199,-4.566 10.199,-10.199 V 10.199 C 379.36,4.566 374.793,0 369.161,0 H 189.285 c -5.632,0 -10.199,4.566 -10.199,10.199 v 2.985 L 148.965,6.049 c -3.034,-0.721 -6.23,-0.01 -8.678,1.925 -2.446,1.934 -3.873,4.881 -3.873,8 v 65.293 c 0,3.111 1.421,6.052 3.856,7.987 1.821,1.446 4.061,2.212 6.343,2.212 0.77,0 1.545,-0.087 2.31,-0.265 l 30.163,-7.012 v 3.041 c 0,5.633 4.567,10.199 10.199,10.199 h 56.516 v 68.438 h -25.758 c -4.246,0 -8.048,2.631 -9.544,6.605 L 87.82,498.204 c -1.985,5.271 0.678,11.154 5.95,13.14 1.184,0.446 2.399,0.658 3.592,0.658 4.125,0 8.007,-2.52 9.546,-6.608 l 69.002,-183.212 69.89,69.889 v 109.728 c 0,5.633 4.567,10.199 10.199,10.199 5.632,0 10.199,-4.566 10.199,-10.199 V 391.541 l 69.745,-69.745 51.26,136.102 c 1.986,5.271 7.87,7.936 13.14,5.95 5.272,-1.985 7.935,-7.867 5.951,-13.139 z M 338.875,20.398 h 20.086 V 30.47 H 338.875 Z M 179.086,63.247 156.812,68.425 V 28.872 l 22.274,5.276 z M 209.785,44.13 V 77.031 H 199.484 V 20.398 h 0.001 118.991 V 77.031 H 308.175 V 44.13 c 0,-5.633 -4.567,-10.199 -10.199,-10.199 h -77.992 c -5.632,-10e-4 -10.199,4.566 -10.199,10.199 z m 36.017,319.091 -61.997,-61.997 43.296,-114.96 h 18.7 V 363.221 Z M 230.184,77.031 V 54.329 h 57.594 v 22.702 z m 36.015,285.663 V 186.265 h 18.7 l 43.152,114.575 z"
   id="path2220"
   style="fill:#344263;fill-opacity:1" />
	</g>
</g>
<g
   id="g2230"
   transform="translate(-87.16282,28.674345)"
   style="fill:#344263;fill-opacity:1">
	<g
   id="g2228"
   style="fill:#344263;fill-opacity:1">
		<path
   d="m 424.181,498.204 -3.458,-9.179 c -1.986,-5.271 -7.869,-7.936 -13.14,-5.95 -5.272,1.986 -7.935,7.868 -5.95,13.14 l 3.458,9.179 c 1.54,4.088 5.422,6.608 9.546,6.608 1.194,0 2.409,-0.212 3.592,-0.658 5.274,-1.987 7.937,-7.869 5.952,-13.14 z"
   id="path2226"
   style="fill:#344263;fill-opacity:1" />
	</g>
</g>
<path
   d="m 528.39063,37.181465 c -5.65517,5.65e-4 -10.23945,4.584847 -10.24002,10.24002 -51.20211,0 -92.78993,35.04425 -106.42022,81.920165 h -88.14017 c -11.19299,0 -20.48004,9.28706 -20.48004,20.48004 v 20.48004 c 0,11.19299 9.28705,20.48004 20.48004,20.48004 h 10.24002 v 30.72006 c 5.7e-4,5.65517 4.58485,10.23945 10.24002,10.24002 h 10.24002 v 204.7004 c -0.44837,0.004 -0.896,0.0374 -1.34,0.1 h -8.90002 c -7.83594,-0.11274 -12.88968,8.25855 -9.14002,15.14003 l -69.78013,71.06014 c -4.13887,3.97364 -4.20606,10.5719 -0.14896,14.62899 4.05709,4.05709 10.65535,3.9899 14.62898,-0.14897 l 74.68015,-75.96015 v 68.72014 c -0.0808,5.71205 4.52741,10.38586 10.24002,10.38586 5.71261,0 10.3208,-4.67381 10.24002,-10.38586 v -68.72014 l 74.68015,75.96015 c 3.97363,4.13887 10.57189,4.20606 14.62898,0.14897 4.0571,-4.05709 3.98991,-10.65535 -0.14896,-14.62899 l -69.78013,-71.06014 c 3.74966,-6.88148 -1.30408,-15.25277 -9.14002,-15.14003 h -8.94002 c -0.43077,-0.0609 -0.86498,-0.0943 -1.3,-0.1 v -204.7004 h 10.24002 c 5.65517,-5.7e-4 10.23945,-4.58485 10.24002,-10.24002 v -30.72006 h 16.46003 c 13.63029,46.8759 55.21811,81.92016 106.42022,81.92016 5.7e-4,5.65517 4.58485,10.23945 10.24002,10.24002 h 30.72006 c 5.65517,-5.7e-4 10.23945,-4.58485 10.24002,-10.24002 V 47.421485 c -5.7e-4,-5.655173 -4.58485,-10.239455 -10.24002,-10.24002 z m 10.24002,20.48004 h 10.24002 V 262.46191 h -10.24002 z m -20.48004,10.24002 V 252.22189 c -51.02186,0 -92.16019,-41.13833 -92.16019,-92.16018 0,-51.02185 41.13833,-92.160185 92.16019,-92.160185 z M 323.59022,149.82169 h 81.92016 v 10.24002 10.24002 h -20.48004 -40.96008 -20.48004 z m 30.72006,40.96008 h 20.48004 v 20.48004 h -20.48004 z"
   id="path2354"
   style="fill:#6581a8;fill-opacity:1;stroke-width:10.24"
   sodipodi:nodetypes="cccsssscccccccccscccscccsccccccccccccccccccccccccscccccccccccccc" /></svg>
