<?xml version="1.0" encoding="UTF-8" standalone="no"?>
<!-- Uploaded to: SVG Repo, www.svgrepo.com, Generator: SVG Repo Mixer Tools -->

<svg
   width="800px"
   height="800px"
   viewBox="0 0 24 24"
   fill="none"
   version="1.1"
   id="svg200"
   sodipodi:docname="pen-tool-svgrepo-com.svg"
   inkscape:version="1.2 (dc2aedaf03, 2022-05-15)"
   xmlns:inkscape="http://www.inkscape.org/namespaces/inkscape"
   xmlns:sodipodi="http://sodipodi.sourceforge.net/DTD/sodipodi-0.dtd"
   xmlns="http://www.w3.org/2000/svg"
   xmlns:svg="http://www.w3.org/2000/svg">
  <defs
     id="defs204" />
  <sodipodi:namedview
     id="namedview202"
     pagecolor="#ffffff"
     bordercolor="#000000"
     borderopacity="0.25"
     inkscape:showpageshadow="2"
     inkscape:pageopacity="0.0"
     inkscape:pagecheckerboard="0"
     inkscape:deskcolor="#d1d1d1"
     showgrid="false"
     inkscape:zoom="0.76279144"
     inkscape:cx="279.23753"
     inkscape:cy="390.67035"
     inkscape:window-width="1920"
     inkscape:window-height="1017"
     inkscape:window-x="1912"
     inkscape:window-y="-8"
     inkscape:window-maximized="1"
     inkscape:current-layer="svg200" />
  <g
     opacity="0.4"
     id="g188"
     style="stroke:#344263;stroke-opacity:1;opacity:1">
    <path
       d="M10.7493 22.5001H13.2693C14.2293 22.5001 14.8493 21.8201 14.6693 20.9901L14.2594 19.1802H9.75935L9.34935 20.9901C9.16935 21.7701 9.84935 22.5001 10.7493 22.5001Z"
       stroke="#292D32"
       stroke-width="1.5"
       stroke-linecap="round"
       stroke-linejoin="round"
       id="path182"
       style="stroke:#344263;stroke-opacity:1" />
    <path
       d="M14.2605 19.1702L15.9905 17.6301C16.9605 16.7701 17.0005 16.1701 16.2305 15.2001L13.1805 11.3302C12.5405 10.5202 11.4905 10.5202 10.8505 11.3302L7.80054 15.2001C7.03054 16.1701 7.03054 16.8001 8.04054 17.6301L9.77054 19.1702"
       stroke="#292D32"
       stroke-width="1.5"
       stroke-linecap="round"
       stroke-linejoin="round"
       id="path184"
       style="stroke:#344263;stroke-opacity:1" />
    <path
       d="M12.0098 11.1201V13.6501"
       stroke="#292D32"
       stroke-width="1.5"
       stroke-linecap="round"
       stroke-linejoin="round"
       id="path186"
       style="stroke:#344263;stroke-opacity:1" />
  </g>
  <path
     d="M11.1501 5.19015L10.3701 4.41012C9.90008 3.94012 9.90008 3.18017 10.3701 2.71017L11.1501 1.93014C11.6201 1.46014 12.3801 1.46014 12.8501 1.93014L13.6301 2.71017C14.1001 3.18017 14.1001 3.94012 13.6301 4.41012L12.8501 5.19015C12.3801 5.66015 11.6201 5.66015 11.1501 5.19015Z"
     stroke="#292D32"
     stroke-width="1.5"
     stroke-linecap="round"
     stroke-linejoin="round"
     id="path190"
     style="stroke:#6581a8;stroke-opacity:1" />
  <path
     d="M19.45 9.81006H20.55C21.21 9.81006 21.75 10.3501 21.75 11.0101V12.11C21.75 12.77 21.21 13.3101 20.55 13.3101H19.45C18.79 13.3101 18.25 12.77 18.25 12.11V11.0101C18.25 10.3501 18.79 9.81006 19.45 9.81006Z"
     stroke="#292D32"
     stroke-width="1.5"
     stroke-linecap="round"
     stroke-linejoin="round"
     id="path192"
     style="stroke:#6581a8;stroke-opacity:1" />
  <path
     d="M4.55 9.81006H3.45C2.79 9.81006 2.25 10.3501 2.25 11.0101V12.11C2.25 12.77 2.79 13.3101 3.45 13.3101H4.55C5.21 13.3101 5.75 12.77 5.75 12.11V11.0101C5.75 10.3501 5.21 9.81006 4.55 9.81006Z"
     stroke="#292D32"
     stroke-width="1.5"
     stroke-linecap="round"
     stroke-linejoin="round"
     id="path194"
     style="stroke:#6581a8;stroke-opacity:1" />
  <path
     d="M18.5402 10.0998L13.2402 4.7998"
     stroke="#292D32"
     stroke-width="1.5"
     stroke-linecap="round"
     stroke-linejoin="round"
     id="path196"
     style="stroke:#6581a8;stroke-opacity:1" />
  <path
     d="M5.46094 10.0998L10.7609 4.7998"
     stroke="#292D32"
     stroke-width="1.5"
     stroke-linecap="round"
     stroke-linejoin="round"
     id="path198"
     style="stroke:#6581a8;stroke-opacity:1" />
</svg>
