<?xml version="1.0" encoding="UTF-8" standalone="no"?>
<!-- Uploaded to: SVG Repo, www.svgrepo.com, Generator: SVG Repo Mixer Tools -->

<svg
   width="662.91034"
   height="662.35675"
   viewBox="0 0 19.88731 19.870703"
   fill="none"
   version="1.1"
   id="svg1243"
   sodipodi:docname="moon.svg"
   inkscape:version="1.2 (dc2aedaf03, 2022-05-15)"
   xmlns:inkscape="http://www.inkscape.org/namespaces/inkscape"
   xmlns:sodipodi="http://sodipodi.sourceforge.net/DTD/sodipodi-0.dtd"
   xmlns="http://www.w3.org/2000/svg"
   xmlns:svg="http://www.w3.org/2000/svg">
  <defs
     id="defs1247" />
  <sodipodi:namedview
     id="namedview1245"
     pagecolor="#ffffff"
     bordercolor="#000000"
     borderopacity="0.25"
     inkscape:showpageshadow="2"
     inkscape:pageopacity="0.0"
     inkscape:pagecheckerboard="0"
     inkscape:deskcolor="#d1d1d1"
     showgrid="false"
     inkscape:zoom="0.539375"
     inkscape:cx="242.8737"
     inkscape:cy="320.7416"
     inkscape:window-width="1920"
     inkscape:window-height="1017"
     inkscape:window-x="1912"
     inkscape:window-y="-8"
     inkscape:window-maximized="1"
     inkscape:current-layer="svg1243" />
  <path
     fill-rule="evenodd"
     clip-rule="evenodd"
     d="m 6.2312917,0.11108331 c 1.01209,-0.45353 1.88891,0.57097 1.57228,1.46049999 -1.07433,3.0183 -0.41425,6.44642 1.81573,8.6755197 2.2413003,2.2405 5.6921003,2.899 8.7202003,1.8054 0.8811,-0.3182 1.8778,0.55 1.4422,1.538 -0.0129,0.0292 -0.0259,0.0583 -0.039,0.0875 -0.7753,1.7192 -2.0155,3.336 -3.62,4.42 -1.7102,1.1554 -3.727,1.7727 -5.7911,1.7727 h -10e-4 c -2.4002503,-0.0026 -4.7249003,-0.8398 -6.5754303,-2.368 -1.85054,-1.5282 -3.11172,-3.6524 -3.56724,-6.0084 -0.45552,-2.3559997 -0.07699,-4.7969797 1.07067,-6.9045297 1.08798,-1.99796 2.91748,-3.55059 4.94293,-4.46530999 z"
     fill="#323232"
     id="path1241"
     style="fill:#ffffff" />
</svg>
