<?xml version="1.0" encoding="UTF-8" standalone="no"?>
<!-- Uploaded to: SVG Repo, www.svgrepo.com, Generator: SVG Repo Mixer Tools -->

<svg
   fill="#000000"
   height="800px"
   width="800px"
   version="1.1"
   id="Layer_1"
   viewBox="0 0 512 512"
   xml:space="preserve"
   sodipodi:docname="overhaul_plans.svg"
   inkscape:version="1.2 (dc2aedaf03, 2022-05-15)"
   xmlns:inkscape="http://www.inkscape.org/namespaces/inkscape"
   xmlns:sodipodi="http://sodipodi.sourceforge.net/DTD/sodipodi-0.dtd"
   xmlns="http://www.w3.org/2000/svg"
   xmlns:svg="http://www.w3.org/2000/svg"><defs
   id="defs1895">
	
</defs><sodipodi:namedview
   id="namedview1893"
   pagecolor="#ffffff"
   bordercolor="#000000"
   borderopacity="0.25"
   inkscape:showpageshadow="2"
   inkscape:pageopacity="0.0"
   inkscape:pagecheckerboard="0"
   inkscape:deskcolor="#d1d1d1"
   showgrid="false"
   inkscape:zoom="0.38139572"
   inkscape:cx="361.82892"
   inkscape:cy="416.88984"
   inkscape:window-width="1920"
   inkscape:window-height="1017"
   inkscape:window-x="1912"
   inkscape:window-y="-8"
   inkscape:window-maximized="1"
   inkscape:current-layer="Layer_1" />
<path
   d="m 204.8,495.832 h -24.253 c -4.465,0 -8.084,3.62 -8.084,8.084 0,4.465 3.62,8.084 8.084,8.084 h 323.368 c 4.466,0 8.084,-3.62 8.084,-8.084 0,-4.465 -3.618,-8.084 -8.084,-8.084 H 490.441 V 460.8 c 0,-10.401 -8.463,-18.863 -18.863,-18.863 h -96.741 c -4.466,0 -8.084,3.62 -8.084,8.084 0,4.465 3.619,8.084 8.084,8.084 h 96.741 c 1.486,0 2.695,1.209 2.695,2.695 v 35.032 H 285.642 v -37.726 h 57.398 c 4.466,0 8.084,-3.62 8.084,-8.084 0,-4.465 -3.618,-8.084 -8.084,-8.084 h -57.398 v -35.032 c 0,-1.485 1.208,-2.695 2.695,-2.695 h 142.821 v 22.366 c 0,4.465 3.618,8.084 8.084,8.084 4.466,0 8.084,-3.62 8.084,-8.084 v -22.366 h 45.811 c 10.401,0 18.863,-8.463 18.863,-18.863 V 353.01 c 0,-10.4 -8.463,-18.863 -18.863,-18.863 H 374.568 c -10.401,0 -18.863,8.463 -18.863,18.863 v 19.402 c 0,4.465 3.618,8.084 8.084,8.084 4.466,0 8.084,-3.62 8.084,-8.084 V 353.01 c 0,-1.485 1.208,-2.695 2.695,-2.695 h 118.568 c 1.486,0 2.695,1.209 2.695,2.695 v 32.337 c 0,1.485 -1.208,2.695 -2.695,2.695 h -204.8 c -10.401,0 -18.863,8.463 -18.863,18.863 v 88.926 h -48.505"
   id="path8404"
   style="fill:#6581a8;fill-opacity:1" /><g
   id="g1888"
   style="fill:#6581a8;fill-opacity:1">
		<g
   id="g1886"
   style="fill:#6581a8;fill-opacity:1">
			<path
   d="M 202.105,91.621 H 363.79 c 16.344,0 29.642,-13.297 29.642,-29.642 0,-5.188 -1.382,-10.317 -3.996,-14.83 -2.238,-3.863 -7.181,-5.182 -11.047,-2.945 -3.863,2.238 -5.183,7.184 -2.944,11.047 1.207,2.085 1.819,4.348 1.819,6.728 0,7.43 -6.044,13.474 -13.474,13.474 H 202.106 c -7.43,0 -13.474,-6.044 -13.474,-13.474 0,-7.43 6.043,-13.475 13.473,-13.475 H 323.58 c 2.891,0 5.56,-1.542 7.004,-4.046 1.443,-2.504 1.44,-5.588 -0.009,-8.089 -1.207,-2.085 -1.818,-4.348 -1.818,-6.728 0,-7.43 6.044,-13.474 13.474,-13.474 h 140.126 c 7.43,0 13.474,6.044 13.474,13.474 0,7.43 -6.044,13.474 -13.474,13.474 h -68.985 c -4.466,0 -8.084,3.62 -8.084,8.084 0,4.464 3.619,8.084 8.084,8.084 h 68.985 c 16.344,0 29.642,-13.297 29.642,-29.642 C 512,13.297 498.702,0 482.358,0 H 342.232 c -16.344,0 -29.642,13.297 -29.642,29.642 0,0.901 0.042,1.8 0.124,2.695 H 202.105 c -16.344,0 -29.642,13.297 -29.642,29.642 0,16.345 13.298,29.642 29.642,29.642 z"
   id="path1880"
   style="fill:#6581a8;fill-opacity:1" />
			<path
   d="M 220.968,480.471 V 460.8 c 0,-10.401 -8.463,-18.863 -18.863,-18.863 h -45.811 v -307.2 H 374.38 c 0.129,0.003 0.252,0.003 0.376,0 H 409.6 v 114.3 c -12.428,3.527 -21.558,14.977 -21.558,28.521 0,16.345 13.298,29.642 29.642,29.642 16.344,0 29.642,-13.297 29.642,-29.642 0,-4.465 -3.618,-8.084 -8.084,-8.084 -4.466,0 -8.084,3.62 -8.084,8.084 0,7.43 -6.044,13.474 -13.474,13.474 -7.43,0 -13.474,-6.044 -13.474,-13.474 0,-7.43 6.044,-13.474 13.474,-13.474 4.466,0 8.084,-3.62 8.084,-8.084 V 134.737 h 2.695 c 4.466,0 8.084,-3.62 8.084,-8.084 0,-4.465 -3.618,-8.084 -8.084,-8.084 H 375.992 L 322.396,99.08 c -4.198,-1.525 -8.834,0.639 -10.361,4.834 -1.525,4.195 0.638,8.833 4.834,10.36 l 11.81,4.294 H 118.568 V 8.084 C 118.568,3.619 114.948,0 110.484,0 106.019,0 102.4,3.62 102.4,8.084 V 118.568 H 25.9 L 89.621,45.743 C 92.56,42.383 92.22,37.276 88.86,34.336 85.5,31.398 80.394,31.737 77.453,35.097 l -75.424,86.2 C 0,123.588 -0.001,126.385 0,126.689 v 64.637 c 0,10.401 8.463,18.863 18.863,18.863 h 21.558 c 10.401,0 18.863,-8.463 18.863,-18.863 v -56.589 h 26.947 v 45.621 c -0.003,0.126 -0.003,0.251 0,0.377 v 44.894 c -0.003,0.126 -0.003,0.251 0,0.377 V 270.9 c -0.003,0.126 -0.003,0.251 0,0.377 v 44.894 c -0.003,0.126 -0.003,0.251 0,0.377 v 44.894 c -0.003,0.126 -0.003,0.251 0,0.377 v 44.894 c -0.003,0.126 -0.003,0.251 0,0.377 v 34.844 H 29.642 c -10.401,0 -18.863,8.463 -18.863,18.863 v 35.032 H 8.084 C 3.619,495.829 0,499.449 0,503.913 0,508.38 3.62,512 8.084,512 H 148.21 c 4.465,0 8.084,-3.62 8.084,-8.084 0,-4.465 -3.62,-8.084 -8.084,-8.084 H 26.947 V 460.8 c 0,-1.485 1.209,-2.695 2.695,-2.695 h 172.463 c 1.485,0 2.695,1.209 2.695,2.695 v 19.672 M 43.116,191.326 c 0,1.485 -1.209,2.695 -2.695,2.695 H 18.863 c -1.485,0 -2.695,-1.209 -2.695,-2.695 v -56.589 h 26.947 v 56.589 z m 97.01,250.611 H 102.4 v -29.204 l 26.808,-8.936 c 4.236,-1.412 6.526,-5.991 5.114,-10.226 -1.412,-4.236 -5.992,-6.526 -10.226,-5.114 l -21.696,7.232 v -28.228 l 26.808,-8.936 c 4.236,-1.412 6.526,-5.991 5.114,-10.226 -1.412,-4.237 -5.992,-6.524 -10.226,-5.114 l -21.696,7.232 v -28.228 l 26.808,-8.936 c 4.236,-1.412 6.526,-5.991 5.114,-10.226 -1.412,-4.236 -5.992,-6.526 -10.226,-5.114 l -21.696,7.232 v -28.228 l 26.808,-8.936 c 4.236,-1.412 6.526,-5.991 5.114,-10.226 -1.412,-4.236 -5.992,-6.525 -10.226,-5.114 l -21.696,7.232 v -28.228 l 26.808,-8.936 c 4.236,-1.412 6.526,-5.991 5.114,-10.226 -1.412,-4.237 -5.992,-6.526 -10.226,-5.114 l -21.696,7.232 v -28.228 l 26.808,-8.936 c 4.236,-1.412 6.526,-5.991 5.114,-10.226 -1.412,-4.236 -5.992,-6.524 -10.226,-5.114 l -21.696,7.232 v -34.594 h 37.726 z"
   id="path1882"
   sodipodi:nodetypes="cssccccccssssssssscsssccccccssscccccccsssscccccccccccccccsscsssssscssssccssscccccccsccccsccccsccccsccccsccccscccccc"
   style="fill:#344263;fill-opacity:1" />
			<path
   d="m 134.668,48.018 21.558,7.84 c 0.913,0.332 1.845,0.489 2.763,0.489 3.303,0 6.404,-2.04 7.598,-5.324 1.526,-4.195 -0.638,-8.833 -4.834,-10.36 l -21.558,-7.84 c -4.193,-1.524 -8.833,0.638 -10.36,4.834 -1.527,4.198 0.638,8.836 4.833,10.361 z"
   id="path1884"
   style="fill:#344263;fill-opacity:1" />
		</g>
	</g>
</svg>
