<?xml version="1.0" encoding="UTF-8" standalone="no"?>
<!-- Uploaded to: SVG Repo, www.svgrepo.com, Generator: SVG Repo Mixer Tools -->

<svg
   width="666.66669"
   height="666.66669"
   viewBox="0 0 20.000001 20.000001"
   fill="none"
   version="1.1"
   id="svg4"
   sodipodi:docname="phone.svg"
   inkscape:version="1.2 (dc2aedaf03, 2022-05-15)"
   xmlns:inkscape="http://www.inkscape.org/namespaces/inkscape"
   xmlns:sodipodi="http://sodipodi.sourceforge.net/DTD/sodipodi-0.dtd"
   xmlns="http://www.w3.org/2000/svg"
   xmlns:svg="http://www.w3.org/2000/svg">
  <defs
     id="defs8" />
  <sodipodi:namedview
     id="namedview6"
     pagecolor="#ffffff"
     bordercolor="#000000"
     borderopacity="0.25"
     inkscape:showpageshadow="2"
     inkscape:pageopacity="0.0"
     inkscape:pagecheckerboard="0"
     inkscape:deskcolor="#d1d1d1"
     showgrid="false"
     inkscape:zoom="0.539375"
     inkscape:cx="-118.65585"
     inkscape:cy="342.98957"
     inkscape:window-width="1920"
     inkscape:window-height="1017"
     inkscape:window-x="1912"
     inkscape:window-y="-8"
     inkscape:window-maximized="1"
     inkscape:current-layer="svg4" />
  <path
     d="M 1,4.5 C 1,12.5081 7.49187,19 15.5,19 16.166,19 16.8216,18.9551 17.4637,18.8682 18.3747,18.7448 19,17.9292 19,17.01 v -2.5685 c 0,-0.8608 -0.5509,-1.6251 -1.3675,-1.8973 l -3.1484,-1.0495 c -0.8005,-0.2668 -1.6589,0.2043 -1.8635,1.023 -0.2731,1.0925 -1.6336,1.4693 -2.4299,0.673 L 6.80926,9.8093 C 6.01301,9.013 6.38984,7.65254 7.48229,7.37943 8.301,7.17476 8.7721,6.31644 8.5053,5.51586 L 7.45585,2.36754 C 7.18362,1.55086 6.41934,1 5.55848,1 H 2.99004 C 2.0708,1 1.25518,1.62533 1.13185,2.53627 1.0449,3.17845 1,3.83398 1,4.5 Z"
     stroke="#323232"
     stroke-width="2"
     stroke-linejoin="round"
     id="path2"
     style="stroke:#152243;stroke-opacity:1" />
</svg>
