<?xml version="1.0" encoding="UTF-8" standalone="no"?>
<!-- Uploaded to: SVG Repo, www.svgrepo.com, Generator: SVG Repo Mixer Tools -->

<svg
   version="1.1"
   id="Icons"
   viewBox="0 0 32 32"
   xml:space="preserve"
   sodipodi:docname="web_design_dark.svg"
   inkscape:version="1.2.2 (732a01da63, 2022-12-09)"
   xmlns:inkscape="http://www.inkscape.org/namespaces/inkscape"
   xmlns:sodipodi="http://sodipodi.sourceforge.net/DTD/sodipodi-0.dtd"
   xmlns="http://www.w3.org/2000/svg"
   xmlns:svg="http://www.w3.org/2000/svg"><defs
   id="defs1569" /><sodipodi:namedview
   id="namedview1567"
   pagecolor="#ffffff"
   bordercolor="#000000"
   borderopacity="0.25"
   inkscape:showpageshadow="2"
   inkscape:pageopacity="0.0"
   inkscape:pagecheckerboard="0"
   inkscape:deskcolor="#d1d1d1"
   showgrid="false"
   inkscape:zoom="26.96875"
   inkscape:cx="13.645423"
   inkscape:cy="16.01854"
   inkscape:window-width="1920"
   inkscape:window-height="974"
   inkscape:window-x="-11"
   inkscape:window-y="-11"
   inkscape:window-maximized="1"
   inkscape:current-layer="Icons" />
<style
   type="text/css"
   id="style1552">
	.st0{fill:none;stroke:#000000;stroke-width:2;stroke-linecap:round;stroke-linejoin:round;stroke-miterlimit:10;}
	.st1{fill:none;stroke:#000000;stroke-width:2;stroke-linecap:round;stroke-linejoin:round;}
	.st2{fill:none;stroke:#000000;stroke-width:2;stroke-linecap:round;stroke-linejoin:round;stroke-dasharray:5.2066,0;}
</style>
<line
   class="st0"
   x1="3"
   y1="11"
   x2="29"
   y2="11"
   id="line1554"
   style="stroke:#cb1c8d;stroke-opacity:1" />
<line
   class="st0"
   x1="7"
   y1="8"
   x2="7"
   y2="8"
   id="line1556"
   style="stroke:#cb1c8d;stroke-opacity:1" />
<line
   class="st0"
   x1="10"
   y1="8"
   x2="10"
   y2="8"
   id="line1558"
   style="stroke:#cb1c8d;stroke-opacity:1" />
<line
   class="st0"
   x1="13"
   y1="8"
   x2="13"
   y2="8"
   id="line1560"
   style="stroke:#cb1c8d;stroke-opacity:1" />
<path
   class="st0"
   d="M8.8,27H3V5h26v22l-5.8,0c0.3-0.1,0.6-0.1,0.9-0.1c0.1-0.6,0.2-1.3,0.2-1.9c0-0.7-0.1-1.3-0.2-1.9  c-1,0.1-2-0.3-2.5-1.3c-0.5-0.9-0.4-2,0.2-2.8c-0.9-0.9-2.1-1.6-3.4-2c-0.4,0.9-1.3,1.6-2.4,1.6s-2-0.7-2.4-1.6  c-1.3,0.4-2.4,1.1-3.4,2c0.6,0.8,0.7,1.9,0.2,2.8c-0.5,0.9-1.6,1.4-2.5,1.3c-0.1,0.6-0.2,1.3-0.2,1.9c0,0.7,0.1,1.3,0.2,1.9  C8.2,26.9,8.5,26.9,8.8,27L8.8,27z"
   id="path1562"
   style="stroke:#152243;stroke-opacity:1" />
<circle
   class="st0"
   cx="16"
   cy="25"
   r="3"
   id="circle1564"
   style="stroke:#cb1c8d;stroke-opacity:1" />
</svg>
